<svg width="1280" height="900" viewBox="0 0 1280 900" fill="none" xmlns="http://www.w3.org/2000/svg">
  <defs>
    <linearGradient id="bg" x1="640" y1="0" x2="640" y2="900" gradientUnits="userSpaceOnUse">
      <stop stop-color="#61746E"/>
      <stop offset="0.34" stop-color="#394844"/>
      <stop offset="1" stop-color="#1B2527"/>
    </linearGradient>
    <linearGradient id="panel" x1="0" y1="0" x2="1" y2="1">
      <stop stop-color="#7D938B" stop-opacity="0.7"/>
      <stop offset="1" stop-color="#324240" stop-opacity="0.95"/>
    </linearGradient>
    <radialGradient id="lamp" cx="0" cy="0" r="1" gradientUnits="userSpaceOnUse" gradientTransform="translate(646 178) rotate(90) scale(148 218)">
      <stop stop-color="#F0F0C1" stop-opacity="0.6"/>
      <stop offset="1" stop-color="#F0F0C1" stop-opacity="0"/>
    </radialGradient>
    <radialGradient id="green" cx="0" cy="0" r="1" gradientUnits="userSpaceOnUse" gradientTransform="translate(165 160) rotate(90) scale(120 90)">
      <stop stop-color="#9BE54F" stop-opacity="0.9"/>
      <stop offset="1" stop-color="#9BE54F" stop-opacity="0"/>
    </radialGradient>
    <radialGradient id="green2" cx="0" cy="0" r="1" gradientUnits="userSpaceOnUse" gradientTransform="translate(1124 110) rotate(90) scale(120 90)">
      <stop stop-color="#9BE54F" stop-opacity="0.75"/>
      <stop offset="1" stop-color="#9BE54F" stop-opacity="0"/>
    </radialGradient>
  </defs>

  <rect width="1280" height="900" fill="url(#bg)"/>
  <rect x="86" y="92" width="1108" height="642" rx="18" fill="#243433"/>
  <rect x="108" y="114" width="1064" height="598" rx="14" fill="url(#panel)" opacity="0.84"/>
  <rect x="506" y="170" width="268" height="250" rx="16" fill="#627A72" stroke="#C1CEC9" stroke-opacity="0.32" stroke-width="5"/>
  <rect x="542" y="204" width="198" height="144" rx="10" fill="#859B8D" stroke="#293534" stroke-width="4"/>
  <path d="M576 242L710 242" stroke="#A14B3F" stroke-width="6" stroke-linecap="round" opacity="0.45"/>
  <path d="M612 278L692 278" stroke="#A14B3F" stroke-width="4" stroke-linecap="round" opacity="0.35"/>
  <path d="M648 173L648 710" stroke="#DDE6DF" stroke-opacity="0.14" stroke-width="4"/>
  <ellipse cx="646" cy="510" rx="256" ry="250" fill="#1C2B24" opacity="0.78"/>
  <ellipse cx="646" cy="510" rx="280" ry="272" stroke="#DDE6DF" stroke-opacity="0.18" stroke-width="12"/>
  <ellipse cx="646" cy="510" rx="244" ry="238" stroke="#7C918B" stroke-opacity="0.36" stroke-width="4"/>
  <path d="M300 700H404" stroke="#D9E1D5" stroke-opacity="0.2" stroke-width="18" stroke-linecap="round"/>
  <path d="M878 700H982" stroke="#D9E1D5" stroke-opacity="0.2" stroke-width="18" stroke-linecap="round"/>

  <path d="M124 812H430L394 686H152L124 812Z" fill="#455855"/>
  <path d="M850 812H1156L1134 686H888L850 812Z" fill="#455855"/>
  <path d="M138 812H428" stroke="#D5E0D7" stroke-opacity="0.15" stroke-width="6"/>
  <path d="M864 812H1142" stroke="#D5E0D7" stroke-opacity="0.15" stroke-width="6"/>

  <g opacity="0.82">
    <path d="M162 710C196 678 198 626 198 570C198 522 206 484 232 452" stroke="#293838" stroke-width="12" stroke-linecap="round"/>
    <circle cx="238" cy="438" r="22" fill="#384B49"/>
    <path d="M126 736C188 716 252 726 294 752" stroke="#253735" stroke-width="12" stroke-linecap="round"/>
    <rect x="226" y="676" width="46" height="78" rx="10" fill="#D9E3E7" fill-opacity="0.7"/>
    <rect x="274" y="690" width="30" height="58" rx="8" fill="#99D96E" fill-opacity="0.75"/>
    <rect x="188" y="700" width="24" height="42" rx="6" fill="#D46A54" fill-opacity="0.6"/>
  </g>

  <g opacity="0.88">
    <rect x="948" y="540" width="102" height="110" rx="10" fill="#2D3B3C"/>
    <rect x="970" y="558" width="58" height="48" rx="6" fill="#0D1216"/>
    <path d="M916 444C936 434 944 410 960 394C980 374 1006 370 1016 394" stroke="#283637" stroke-width="10" stroke-linecap="round"/>
    <circle cx="906" cy="454" r="20" fill="#334747"/>
    <path d="M1038 436L1066 580" stroke="#394847" stroke-width="8" stroke-linecap="round"/>
    <ellipse cx="1088" cy="510" rx="22" ry="28" fill="#6B7B82"/>
    <ellipse cx="1088" cy="510" rx="16" ry="22" fill="#D34858" fill-opacity="0.55"/>
    <path d="M1094 544L1134 712" stroke="#C2483C" stroke-opacity="0.35" stroke-width="6" stroke-linecap="round"/>
    <rect x="1044" y="704" width="22" height="68" rx="9" fill="#BFD0D8" fill-opacity="0.82"/>
    <rect x="1076" y="694" width="28" height="82" rx="9" fill="#8BE16C" fill-opacity="0.78"/>
    <rect x="1116" y="710" width="28" height="64" rx="9" fill="#A55ED8" fill-opacity="0.58"/>
  </g>

  <g opacity="0.44">
    <path d="M36 74C118 84 152 118 166 202C108 214 72 182 36 74Z" fill="url(#green)"/>
    <path d="M1244 40C1162 60 1122 98 1108 188C1170 196 1210 156 1244 40Z" fill="url(#green2)"/>
  </g>

  <ellipse cx="646" cy="176" rx="220" ry="150" fill="url(#lamp)"/>
  <path d="M340 296C404 288 430 248 456 212" stroke="#D24D40" stroke-opacity="0.18" stroke-width="16" stroke-linecap="round"/>
  <path d="M1026 286C952 280 900 250 862 212" stroke="#D24D40" stroke-opacity="0.18" stroke-width="16" stroke-linecap="round"/>
</svg>
